<?xml version="1.0" encoding="utf-8"?>
<!-- Generator: Adobe Illustrator 13.0.0, SVG Export Plug-In . SVG Version: 6.00 Build 14948)  -->
<!DOCTYPE svg PUBLIC "-//W3C//DTD SVG 1.1//EN" "http://www.w3.org/Graphics/SVG/1.1/DTD/svg11.dtd">
<svg version="1.1" id="Layer_1" xmlns="http://www.w3.org/2000/svg" xmlns:xlink="http://www.w3.org/1999/xlink" x="0px" y="0px"
	 width="441.84px" height="75.073px" viewBox="0 0 441.84 75.073" enable-background="new 0 0 441.84 75.073" xml:space="preserve">
<g id="Layer_x0020_1">
	<g id="_283868584">
		<g>
			<rect fill="#4B4B4D" width="441.84" height="75.073"/>
			<rect x="1.672" y="1.433" fill="#FEFEFE" width="420.902" height="72.208"/>
			<polygon fill="#4B4B4D" points="200.46,0.159 441.442,0.159 441.442,74.038 200.46,74.038 			"/>
			<path fill="#FEFEFE" d="M432.048,4.617c0.876,0,1.831,0.239,2.707,0.717s1.592,1.194,2.07,2.07
				c0.478,0.875,0.796,1.831,0.796,2.866c0,0.956-0.318,1.911-0.796,2.787c-0.479,0.956-1.115,1.592-2.07,2.149
				c-0.876,0.478-1.751,0.716-2.707,0.716c-0.955,0-1.91-0.239-2.786-0.716c-0.876-0.557-1.592-1.194-2.07-2.149
				c-0.478-0.875-0.716-1.831-0.716-2.787c0-1.035,0.238-1.99,0.716-2.866c0.479-0.876,1.194-1.592,2.07-2.07
				S431.093,4.617,432.048,4.617z M432.048,5.493c-0.796,0-1.592,0.239-2.309,0.637s-1.354,0.956-1.751,1.751
				c-0.398,0.796-0.637,1.513-0.637,2.388c0,0.796,0.238,1.592,0.637,2.309c0.397,0.796,0.955,1.353,1.751,1.751
				c0.717,0.478,1.513,0.637,2.309,0.637s1.513-0.159,2.309-0.637c0.717-0.398,1.274-0.956,1.672-1.751
				c0.398-0.717,0.638-1.513,0.638-2.309c0-0.875-0.239-1.592-0.638-2.388c-0.397-0.796-0.955-1.354-1.751-1.751
				C433.561,5.732,432.765,5.493,432.048,5.493z"/>
			<g>
				<g>
					<path fill="#373435" d="M339.62,15.604l10.19,0.08c6.13,0,8.598,0.319,10.189,0.796c2.468,0.637,4.618,2.149,6.21,4.219
						c1.513,1.911,2.389,4.378,2.389,7.324c0,3.185-0.638,5.573-2.149,7.722c-1.354,1.831-3.583,3.583-6.369,4.379
						c-3.503,0.955-5.812,0.955-11.385,0.955h-3.185v20.778h-5.891V15.604z M345.511,21.574v13.614l7.483,0.08
						c0.956,0,5.732-0.08,7.803-2.229c0.955-1.115,1.91-2.787,1.751-5.095c-0.159-2.149-1.114-3.821-2.707-5.095
						c-0.397-0.318-1.592-0.796-2.388-0.955c-1.115-0.239-2.31-0.319-4.141-0.319H345.511z"/>
					<path fill="#373435" d="M313.587,15.683l21.177,46.174h-6.369l-6.847-14.728h-18.071l-6.847,14.728h-6.528l21.416-46.174
						H313.587z M312.552,27.545l-6.368,13.693h12.737L312.552,27.545z"/>
					<polygon fill="#373435" points="375.843,15.604 402.592,15.604 402.592,21.495 381.813,21.495 381.813,33.994 402.354,33.994 
						402.354,39.885 381.813,39.885 381.813,55.967 402.354,55.967 402.354,61.857 375.843,61.857 					"/>
					<path fill="#373435" d="M220.044,21.893c1.512-1.354,4.378-1.592,6.448-0.637c1.991,0.876,3.424,2.866,5.176,5.175
						c1.592-1.194,3.184-2.468,4.776-3.662c-4.22-5.971-8.28-9.076-14.808-8.041c-6.608,1.274-10.031,7.085-9.076,13.215
						c1.035,4.776,3.98,7.165,9.872,11.782c2.946,2.309,5.892,5.095,7.165,7.085c2.07,3.343,0.797,7.245-2.229,9.076
						c-3.025,1.752-6.529,1.91-9.792-1.672c-1.115-1.354-1.99-2.547-3.185-4.856c-1.672,1.035-3.344,2.07-5.016,3.104
						c2.946,5.494,5.652,8.28,9.952,9.793c6.13,1.91,12.816-0.08,16.479-6.847c2.628-5.971,0.398-11.703-4.378-16.161
						c-2.548-2.707-8.12-6.209-10.668-8.757C218.054,27.943,217.656,24.042,220.044,21.893z"/>
					<path fill="#373435" d="M276.25,22.609c2.707,1.433,5.095,3.821,6.448,5.812c1.593-1.194,3.104-2.388,4.696-3.583
						c-2.388-3.423-5.413-6.448-10.508-8.518c-6.131-2.468-13.773-2.389-20.063,0.159c-6.926,3.185-11.384,8.678-13.295,15.046
						c-2.149,8.518-0.398,15.604,3.185,21.176c4.856,7.006,11.385,9.872,18.868,10.19c5.095,0.238,9.713-0.637,14.012-2.945
						c2.945-1.593,5.652-3.742,7.801-6.768c-1.432-1.193-3.184-2.468-4.617-3.662c-5.731,7.165-13.295,8.917-21.256,6.926
						c-6.527-2.148-11.464-7.403-12.419-14.17c-0.876-4.936,0.079-11.146,4.06-15.684c3.822-4.14,8.439-5.971,13.295-6.209
						C270.358,20.301,273.305,21.097,276.25,22.609z"/>
					<path fill="#373435" d="M414.534,21.893c1.512-1.433,4.378-1.672,6.368-0.717c1.99,0.956,3.503,2.946,5.255,5.254
						c1.592-1.194,3.185-2.468,4.776-3.662c-4.22-5.971-8.279-9.076-14.888-8.041c-6.607,1.194-10.03,7.006-8.995,13.215
						c0.955,4.776,3.9,7.165,9.792,11.782c3.024,2.229,5.971,5.016,7.165,7.085c2.149,3.343,0.875,7.245-2.15,9.076
						c-3.024,1.672-6.527,1.831-9.792-1.672c-1.114-1.354-1.99-2.547-3.185-4.856c-1.671,1.035-3.343,1.991-5.015,3.025
						c2.865,5.573,5.652,8.359,9.951,9.872c6.13,1.91,12.817-0.08,16.479-6.847c2.627-5.971,0.397-11.703-4.379-16.241
						c-2.548-2.627-8.12-6.13-10.747-8.678C412.543,27.943,412.065,23.963,414.534,21.893z"/>
				</g>
				<g>
					<path fill="#FEFEFE" d="M338.903,16.002l10.19,0.08c6.13,0,8.598,0.318,10.19,0.796c2.468,0.637,4.617,2.149,6.209,4.219
						c1.513,1.911,2.389,4.379,2.389,7.324c0.079,3.185-0.637,5.573-2.149,7.722c-1.354,1.831-3.583,3.583-6.369,4.379
						c-3.503,0.955-5.731,0.955-11.384,0.955h-3.105v20.779h-5.971V16.002z M344.874,21.973v13.613l7.404,0.08
						c0.955,0,5.731-0.08,7.802-2.229c0.955-1.115,1.91-2.786,1.751-5.095c-0.079-2.149-1.034-3.821-2.706-5.095
						c-0.398-0.318-1.593-0.796-2.389-0.955c-1.114-0.239-2.309-0.318-4.14-0.318H344.874z"/>
					<path fill="#FEFEFE" d="M312.871,16.082l21.256,46.174h-6.448l-6.847-14.728H302.76l-6.767,14.728h-6.608l21.416-46.174
						H312.871z M311.836,27.943l-6.289,13.693h12.658L311.836,27.943z"/>
					<polygon fill="#FEFEFE" points="375.206,16.082 401.876,16.082 401.876,21.893 381.098,21.893 381.098,34.392 401.717,34.392 
						401.717,40.283 381.098,40.283 381.098,56.364 401.717,56.364 401.717,62.256 375.206,62.256 					"/>
					<path fill="#FEFEFE" d="M219.408,22.291c1.433-1.354,4.299-1.592,6.369-0.637c1.99,0.875,3.423,2.866,5.175,5.174
						c1.672-1.194,3.264-2.468,4.855-3.662c-4.219-5.971-8.358-9.076-14.887-8.041c-6.607,1.274-10.031,7.085-8.996,13.215
						c0.955,4.777,3.901,7.165,9.792,11.783c3.024,2.309,5.891,5.095,7.164,7.085c2.07,3.344,0.876,7.244-2.229,9.076
						c-3.025,1.751-6.528,1.91-9.713-1.672c-1.194-1.354-2.07-2.548-3.184-4.856c-1.672,1.034-3.423,2.069-5.095,3.104
						c2.945,5.493,5.732,8.279,9.951,9.793c6.13,1.91,12.817-0.08,16.479-6.848c2.627-5.971,0.397-11.702-4.378-16.161
						c-2.549-2.707-8.121-6.209-10.668-8.757C217.417,28.341,216.939,24.44,219.408,22.291z"/>
					<path fill="#FEFEFE" d="M275.533,23.007c2.707,1.433,5.096,3.821,6.448,5.812c1.593-1.194,3.104-2.389,4.697-3.583
						c-2.309-3.423-5.413-6.448-10.509-8.518c-6.13-2.468-13.772-2.388-20.063,0.159c-6.926,3.185-11.384,8.678-13.295,15.046
						c-2.148,8.519-0.397,15.604,3.265,21.177c4.776,7.005,11.305,9.872,18.788,10.19c5.096,0.238,9.713-0.637,14.092-2.946
						c2.865-1.592,5.572-3.741,7.801-6.767c-1.512-1.194-3.264-2.468-4.697-3.662c-5.731,7.165-13.295,8.916-21.256,6.926
						c-6.527-2.149-11.463-7.403-12.419-14.17c-0.876-4.936,0.079-11.146,4.06-15.683c3.822-4.14,8.52-5.971,13.296-6.21
						C269.643,20.699,272.588,21.495,275.533,23.007z"/>
					<path fill="#FEFEFE" d="M413.817,22.291c1.513-1.433,4.379-1.672,6.369-0.717c2.069,0.956,3.503,2.946,5.254,5.254
						c1.592-1.194,3.185-2.468,4.776-3.662c-4.219-5.971-8.279-9.076-14.887-8.041c-6.608,1.194-10.031,7.006-8.996,13.215
						c1.035,4.777,3.9,7.165,9.792,11.783c3.025,2.229,5.971,5.015,7.244,7.085c2.07,3.344,0.797,7.244-2.229,9.076
						c-3.025,1.672-6.528,1.83-9.792-1.672c-1.115-1.354-1.99-2.548-3.185-4.856c-1.672,1.034-3.344,1.99-5.016,3.024
						c2.945,5.573,5.652,8.359,9.951,9.873c6.13,1.91,12.817-0.08,16.479-6.848c2.627-5.971,0.398-11.702-4.379-16.161
						c-2.547-2.707-8.12-6.209-10.747-8.757C411.827,28.341,411.429,24.361,413.817,22.291z"/>
				</g>
			</g>
			<g>
				<ellipse fill="#373435" cx="73.163" cy="36.939" rx="24.202" ry="24.52"/>
				<polygon fill="#373435" points="160.257,13.852 187.324,13.852 187.324,20.221 166.625,20.221 166.625,32.242 187.165,32.242 
					187.165,38.611 166.625,38.611 166.625,54.215 187.165,54.215 187.165,60.584 160.257,60.584 				"/>
				<polygon fill="#373435" points="101.902,60.584 108.271,13.852 110.659,13.852 127.935,49.279 145.051,13.852 147.201,13.852 
					153.808,60.584 147.599,60.584 143.459,30.969 129.049,60.584 126.661,60.584 112.172,30.729 108.271,60.584 				"/>
				<polygon fill="#373435" points="9.155,13.772 15.285,13.772 15.285,32.481 35.984,32.481 35.984,13.772 42.035,13.772 
					42.035,60.186 35.984,60.186 35.984,38.532 15.285,38.532 15.285,60.186 9.155,60.186 				"/>
				<ellipse fill="#FEFEFE" cx="73.163" cy="36.94" rx="17.833" ry="18.072"/>
			</g>
			<g>
				<ellipse fill="#4B4B4D" cx="72.366" cy="36.939" rx="24.202" ry="24.52"/>
				<polygon fill="#4B4B4D" points="159.381,13.852 186.528,13.852 186.528,20.221 165.75,20.221 165.75,32.242 186.29,32.242 
					186.29,38.611 165.75,38.611 165.75,54.215 186.29,54.215 186.29,60.584 159.381,60.584 				"/>
				<polygon fill="#4B4B4D" points="101.106,60.584 107.395,13.852 109.783,13.852 127.059,49.279 144.255,13.852 146.404,13.852 
					152.933,60.584 146.723,60.584 142.663,30.969 128.253,60.584 125.865,60.584 111.296,30.729 107.395,60.584 				"/>
				<polygon fill="#4B4B4D" points="8.279,13.772 14.41,13.772 14.41,32.481 35.108,32.481 35.108,13.772 41.238,13.772 
					41.238,60.186 35.108,60.186 35.108,38.532 14.41,38.532 14.41,60.186 8.279,60.186 				"/>
				<ellipse fill="#FEFEFE" cx="72.366" cy="36.94" rx="17.833" ry="18.072"/>
			</g>
			<path fill="#FEFEFE" d="M429.58,13.375v-6.05h2.07c0.716,0,1.193,0,1.513,0.159c0.318,0.08,0.557,0.318,0.796,0.557
				c0.159,0.318,0.238,0.557,0.238,0.876c0,0.478-0.159,0.875-0.478,1.194s-0.716,0.478-1.273,0.558
				c0.238,0.08,0.397,0.159,0.558,0.318c0.238,0.239,0.557,0.637,0.875,1.194l0.717,1.194h-1.194l-0.478-0.955
				c-0.478-0.717-0.796-1.194-1.035-1.433c-0.159-0.159-0.397-0.159-0.796-0.159h-0.558v2.547H429.58z M430.535,9.951h1.194
				c0.558,0,0.955-0.08,1.114-0.239c0.239-0.159,0.319-0.398,0.319-0.716c0-0.159-0.08-0.318-0.159-0.478
				c-0.08-0.16-0.239-0.239-0.398-0.319s-0.478-0.08-0.955-0.08h-1.115V9.951z"/>
		</g>
	</g>
</g>
</svg>
